<mxfile host="Electron" modified="2023-07-25T09:11:32.879Z" agent="Mozilla/5.0 (Windows NT 10.0; Win64; x64) AppleWebKit/537.36 (KHTML, like Gecko) draw.io/21.6.1 Chrome/112.0.5615.204 Electron/24.6.1 Safari/537.36" etag="BAC5Fp2w2-L_eVWzReTI" version="21.6.1" type="device">
  <diagram id="R2lEEEUBdFMjLlhIrx00" name="Page-1">
    <mxGraphModel dx="2084" dy="737" grid="1" gridSize="10" guides="1" tooltips="1" connect="1" arrows="1" fold="1" page="1" pageScale="1" pageWidth="850" pageHeight="1100" math="0" shadow="0" extFonts="Permanent Marker^https://fonts.googleapis.com/css?family=Permanent+Marker">
      <root>
        <mxCell id="0" />
        <mxCell id="1" parent="0" />
        <mxCell id="0R5_wL4fo3mR4aE9MmKr-1" value="USERS TABLE" style="swimlane;childLayout=stackLayout;horizontal=1;startSize=50;horizontalStack=0;rounded=1;fontSize=14;fontStyle=0;strokeWidth=2;resizeParent=0;resizeLast=1;shadow=0;dashed=0;align=center;arcSize=4;whiteSpace=wrap;html=1;" parent="1" vertex="1">
          <mxGeometry x="10" y="10" width="150" height="140" as="geometry" />
        </mxCell>
        <mxCell id="0R5_wL4fo3mR4aE9MmKr-2" value="&lt;u&gt;Name&lt;br&gt;&lt;/u&gt;Email&lt;br&gt;Password&amp;nbsp;&lt;br&gt;Date of&amp;nbsp;Birth&lt;br&gt;Profile Image" style="align=left;strokeColor=none;fillColor=none;spacingLeft=4;fontSize=12;verticalAlign=top;resizable=0;rotatable=0;part=1;html=1;" parent="0R5_wL4fo3mR4aE9MmKr-1" vertex="1">
          <mxGeometry y="50" width="150" height="90" as="geometry" />
        </mxCell>
        <mxCell id="0R5_wL4fo3mR4aE9MmKr-5" value="ARTIST TABLE" style="swimlane;childLayout=stackLayout;horizontal=1;startSize=50;horizontalStack=0;rounded=1;fontSize=14;fontStyle=0;strokeWidth=2;resizeParent=0;resizeLast=1;shadow=0;dashed=0;align=center;arcSize=4;whiteSpace=wrap;html=1;" parent="1" vertex="1">
          <mxGeometry x="370" y="40" width="140" height="120" as="geometry" />
        </mxCell>
        <mxCell id="0R5_wL4fo3mR4aE9MmKr-6" value="&lt;u&gt;Name&lt;/u&gt;&lt;br&gt;Genre&lt;br&gt;Image" style="align=left;strokeColor=none;fillColor=none;spacingLeft=4;fontSize=12;verticalAlign=top;resizable=0;rotatable=0;part=1;html=1;" parent="0R5_wL4fo3mR4aE9MmKr-5" vertex="1">
          <mxGeometry y="50" width="140" height="70" as="geometry" />
        </mxCell>
        <mxCell id="0R5_wL4fo3mR4aE9MmKr-7" value="ALBUMS TABLE" style="swimlane;childLayout=stackLayout;horizontal=1;startSize=50;horizontalStack=0;rounded=1;fontSize=14;fontStyle=0;strokeWidth=2;resizeParent=0;resizeLast=1;shadow=0;dashed=0;align=center;arcSize=4;whiteSpace=wrap;html=1;" parent="1" vertex="1">
          <mxGeometry x="690" y="40" width="160" height="120" as="geometry" />
        </mxCell>
        <mxCell id="0R5_wL4fo3mR4aE9MmKr-8" value="&lt;u&gt;Name&lt;/u&gt;&lt;br&gt;Release Date&lt;br&gt;Image&lt;br&gt;Arstist Name" style="align=left;strokeColor=none;fillColor=none;spacingLeft=4;fontSize=12;verticalAlign=top;resizable=0;rotatable=0;part=1;html=1;" parent="0R5_wL4fo3mR4aE9MmKr-7" vertex="1">
          <mxGeometry y="50" width="160" height="70" as="geometry" />
        </mxCell>
        <mxCell id="0R5_wL4fo3mR4aE9MmKr-9" value="TRACK TABLE" style="swimlane;childLayout=stackLayout;horizontal=1;startSize=50;horizontalStack=0;rounded=1;fontSize=14;fontStyle=0;strokeWidth=2;resizeParent=0;resizeLast=1;shadow=0;dashed=0;align=center;arcSize=4;whiteSpace=wrap;html=1;" parent="1" vertex="1">
          <mxGeometry x="690" y="350" width="160" height="120" as="geometry" />
        </mxCell>
        <mxCell id="0R5_wL4fo3mR4aE9MmKr-10" value="&lt;u&gt;Name&lt;/u&gt;&lt;br&gt;Duration&lt;br&gt;File path&lt;br&gt;Album Name" style="align=left;strokeColor=none;fillColor=none;spacingLeft=4;fontSize=12;verticalAlign=top;resizable=0;rotatable=0;part=1;html=1;" parent="0R5_wL4fo3mR4aE9MmKr-9" vertex="1">
          <mxGeometry y="50" width="160" height="70" as="geometry" />
        </mxCell>
        <mxCell id="0R5_wL4fo3mR4aE9MmKr-11" value="PLAYLISTS TABLE" style="swimlane;childLayout=stackLayout;horizontal=1;startSize=50;horizontalStack=0;rounded=1;fontSize=14;fontStyle=0;strokeWidth=2;resizeParent=0;resizeLast=1;shadow=0;dashed=0;align=center;arcSize=4;whiteSpace=wrap;html=1;" parent="1" vertex="1">
          <mxGeometry x="5" y="358" width="160" height="120" as="geometry" />
        </mxCell>
        <mxCell id="0R5_wL4fo3mR4aE9MmKr-12" value="&lt;u&gt;Name&lt;/u&gt;&lt;br&gt;Image&lt;br&gt;Users Name" style="align=left;strokeColor=none;fillColor=none;spacingLeft=4;fontSize=12;verticalAlign=top;resizable=0;rotatable=0;part=1;html=1;" parent="0R5_wL4fo3mR4aE9MmKr-11" vertex="1">
          <mxGeometry y="50" width="160" height="70" as="geometry" />
        </mxCell>
        <mxCell id="0R5_wL4fo3mR4aE9MmKr-26" style="edgeStyle=orthogonalEdgeStyle;rounded=0;orthogonalLoop=1;jettySize=auto;html=1;exitX=0.5;exitY=1;exitDx=0;exitDy=0;exitPerimeter=0;entryX=0.467;entryY=-0.055;entryDx=0;entryDy=0;entryPerimeter=0;endArrow=none;endFill=0;" parent="1" source="0R5_wL4fo3mR4aE9MmKr-21" target="0R5_wL4fo3mR4aE9MmKr-11" edge="1">
          <mxGeometry relative="1" as="geometry" />
        </mxCell>
        <mxCell id="0R5_wL4fo3mR4aE9MmKr-27" style="edgeStyle=orthogonalEdgeStyle;rounded=0;orthogonalLoop=1;jettySize=auto;html=1;exitX=0.5;exitY=0;exitDx=0;exitDy=0;exitPerimeter=0;entryX=0.46;entryY=1.011;entryDx=0;entryDy=0;entryPerimeter=0;endArrow=none;endFill=0;" parent="1" source="0R5_wL4fo3mR4aE9MmKr-21" target="0R5_wL4fo3mR4aE9MmKr-2" edge="1">
          <mxGeometry relative="1" as="geometry" />
        </mxCell>
        <mxCell id="0R5_wL4fo3mR4aE9MmKr-21" value="Create" style="strokeWidth=2;html=1;shape=mxgraph.flowchart.decision;whiteSpace=wrap;" parent="1" vertex="1">
          <mxGeometry x="30" y="210" width="90" height="80" as="geometry" />
        </mxCell>
        <mxCell id="0R5_wL4fo3mR4aE9MmKr-28" value="1..1" style="text;html=1;align=center;verticalAlign=middle;resizable=0;points=[];autosize=1;strokeColor=none;fillColor=none;" parent="1" vertex="1">
          <mxGeometry x="80" y="158" width="40" height="30" as="geometry" />
        </mxCell>
        <mxCell id="0R5_wL4fo3mR4aE9MmKr-29" value="1..N" style="text;html=1;align=center;verticalAlign=middle;resizable=0;points=[];autosize=1;strokeColor=none;fillColor=none;" parent="1" vertex="1">
          <mxGeometry x="65" y="298" width="50" height="30" as="geometry" />
        </mxCell>
        <mxCell id="0R5_wL4fo3mR4aE9MmKr-30" value="1:N" style="text;html=1;align=center;verticalAlign=middle;resizable=0;points=[];autosize=1;strokeColor=none;fillColor=none;" parent="1" vertex="1">
          <mxGeometry x="140" y="238" width="40" height="30" as="geometry" />
        </mxCell>
        <mxCell id="0R5_wL4fo3mR4aE9MmKr-33" style="edgeStyle=orthogonalEdgeStyle;rounded=0;orthogonalLoop=1;jettySize=auto;html=1;exitX=1;exitY=0.5;exitDx=0;exitDy=0;exitPerimeter=0;entryX=0;entryY=0.5;entryDx=0;entryDy=0;endArrow=none;endFill=0;" parent="1" source="0R5_wL4fo3mR4aE9MmKr-31" target="0R5_wL4fo3mR4aE9MmKr-7" edge="1">
          <mxGeometry relative="1" as="geometry" />
        </mxCell>
        <mxCell id="0R5_wL4fo3mR4aE9MmKr-36" style="edgeStyle=orthogonalEdgeStyle;rounded=0;orthogonalLoop=1;jettySize=auto;html=1;exitX=0;exitY=0.5;exitDx=0;exitDy=0;exitPerimeter=0;entryX=1.029;entryY=0.143;entryDx=0;entryDy=0;entryPerimeter=0;endArrow=none;endFill=0;" parent="1" source="0R5_wL4fo3mR4aE9MmKr-31" target="0R5_wL4fo3mR4aE9MmKr-6" edge="1">
          <mxGeometry relative="1" as="geometry" />
        </mxCell>
        <mxCell id="0R5_wL4fo3mR4aE9MmKr-31" value="Release" style="strokeWidth=2;html=1;shape=mxgraph.flowchart.decision;whiteSpace=wrap;" parent="1" vertex="1">
          <mxGeometry x="570" y="59" width="80" height="82" as="geometry" />
        </mxCell>
        <mxCell id="0R5_wL4fo3mR4aE9MmKr-37" value="1..1" style="text;html=1;align=center;verticalAlign=middle;resizable=0;points=[];autosize=1;strokeColor=none;fillColor=none;" parent="1" vertex="1">
          <mxGeometry x="520" y="78" width="40" height="30" as="geometry" />
        </mxCell>
        <mxCell id="0R5_wL4fo3mR4aE9MmKr-38" value="1..N" style="text;html=1;align=center;verticalAlign=middle;resizable=0;points=[];autosize=1;strokeColor=none;fillColor=none;" parent="1" vertex="1">
          <mxGeometry x="635" y="68" width="50" height="30" as="geometry" />
        </mxCell>
        <mxCell id="0R5_wL4fo3mR4aE9MmKr-39" value="1:N" style="text;html=1;align=center;verticalAlign=middle;resizable=0;points=[];autosize=1;strokeColor=none;fillColor=none;" parent="1" vertex="1">
          <mxGeometry x="590" y="28" width="40" height="30" as="geometry" />
        </mxCell>
        <mxCell id="0R5_wL4fo3mR4aE9MmKr-41" style="edgeStyle=orthogonalEdgeStyle;rounded=0;orthogonalLoop=1;jettySize=auto;html=1;exitX=0.5;exitY=0;exitDx=0;exitDy=0;exitPerimeter=0;entryX=0.594;entryY=1;entryDx=0;entryDy=0;entryPerimeter=0;endArrow=none;endFill=0;" parent="1" source="0R5_wL4fo3mR4aE9MmKr-40" target="0R5_wL4fo3mR4aE9MmKr-8" edge="1">
          <mxGeometry relative="1" as="geometry" />
        </mxCell>
        <mxCell id="0R5_wL4fo3mR4aE9MmKr-42" style="edgeStyle=orthogonalEdgeStyle;rounded=0;orthogonalLoop=1;jettySize=auto;html=1;exitX=0.5;exitY=1;exitDx=0;exitDy=0;exitPerimeter=0;entryX=0.594;entryY=0;entryDx=0;entryDy=0;entryPerimeter=0;endArrow=none;endFill=0;" parent="1" source="0R5_wL4fo3mR4aE9MmKr-40" target="0R5_wL4fo3mR4aE9MmKr-9" edge="1">
          <mxGeometry relative="1" as="geometry" />
        </mxCell>
        <mxCell id="0R5_wL4fo3mR4aE9MmKr-40" value="Have" style="strokeWidth=2;html=1;shape=mxgraph.flowchart.decision;whiteSpace=wrap;" parent="1" vertex="1">
          <mxGeometry x="740" y="210" width="90" height="90" as="geometry" />
        </mxCell>
        <mxCell id="0R5_wL4fo3mR4aE9MmKr-43" value="1..1" style="text;html=1;align=center;verticalAlign=middle;resizable=0;points=[];autosize=1;strokeColor=none;fillColor=none;" parent="1" vertex="1">
          <mxGeometry x="740" y="168" width="40" height="30" as="geometry" />
        </mxCell>
        <mxCell id="0R5_wL4fo3mR4aE9MmKr-44" value="1..N" style="text;html=1;align=center;verticalAlign=middle;resizable=0;points=[];autosize=1;strokeColor=none;fillColor=none;" parent="1" vertex="1">
          <mxGeometry x="725" y="308" width="50" height="30" as="geometry" />
        </mxCell>
        <mxCell id="0R5_wL4fo3mR4aE9MmKr-45" value="1:N" style="text;html=1;align=center;verticalAlign=middle;resizable=0;points=[];autosize=1;strokeColor=none;fillColor=none;" parent="1" vertex="1">
          <mxGeometry x="680" y="235" width="40" height="30" as="geometry" />
        </mxCell>
        <mxCell id="0R5_wL4fo3mR4aE9MmKr-48" style="edgeStyle=orthogonalEdgeStyle;rounded=0;orthogonalLoop=1;jettySize=auto;html=1;exitX=1;exitY=0.5;exitDx=0;exitDy=0;exitPerimeter=0;entryX=0;entryY=0.5;entryDx=0;entryDy=0;endArrow=none;endFill=0;" parent="1" source="0R5_wL4fo3mR4aE9MmKr-47" target="0R5_wL4fo3mR4aE9MmKr-9" edge="1">
          <mxGeometry relative="1" as="geometry" />
        </mxCell>
        <mxCell id="0R5_wL4fo3mR4aE9MmKr-56" style="edgeStyle=orthogonalEdgeStyle;rounded=0;orthogonalLoop=1;jettySize=auto;html=1;exitX=0;exitY=0.5;exitDx=0;exitDy=0;exitPerimeter=0;entryX=1.025;entryY=0.157;entryDx=0;entryDy=0;entryPerimeter=0;endArrow=none;endFill=0;" parent="1" source="0R5_wL4fo3mR4aE9MmKr-47" target="0R5_wL4fo3mR4aE9MmKr-12" edge="1">
          <mxGeometry relative="1" as="geometry" />
        </mxCell>
        <mxCell id="0R5_wL4fo3mR4aE9MmKr-47" value="Have" style="strokeWidth=2;html=1;shape=mxgraph.flowchart.decision;whiteSpace=wrap;" parent="1" vertex="1">
          <mxGeometry x="378" y="378" width="95" height="90" as="geometry" />
        </mxCell>
        <mxCell id="0R5_wL4fo3mR4aE9MmKr-52" value="1..N" style="text;html=1;align=center;verticalAlign=middle;resizable=0;points=[];autosize=1;strokeColor=none;fillColor=none;" parent="1" vertex="1">
          <mxGeometry x="500" y="390" width="50" height="30" as="geometry" />
        </mxCell>
        <mxCell id="0R5_wL4fo3mR4aE9MmKr-53" value="1..N" style="text;html=1;align=center;verticalAlign=middle;resizable=0;points=[];autosize=1;strokeColor=none;fillColor=none;" parent="1" vertex="1">
          <mxGeometry x="310" y="390" width="50" height="30" as="geometry" />
        </mxCell>
        <mxCell id="0R5_wL4fo3mR4aE9MmKr-54" value="M:N" style="text;html=1;align=center;verticalAlign=middle;resizable=0;points=[];autosize=1;strokeColor=none;fillColor=none;" parent="1" vertex="1">
          <mxGeometry x="400.5" y="348" width="50" height="30" as="geometry" />
        </mxCell>
        <mxCell id="0R5_wL4fo3mR4aE9MmKr-58" style="edgeStyle=orthogonalEdgeStyle;rounded=0;orthogonalLoop=1;jettySize=auto;html=1;exitX=1;exitY=0.5;exitDx=0;exitDy=0;exitPerimeter=0;entryX=-0.029;entryY=0.358;entryDx=0;entryDy=0;entryPerimeter=0;endArrow=none;endFill=0;" parent="1" source="0R5_wL4fo3mR4aE9MmKr-57" target="0R5_wL4fo3mR4aE9MmKr-5" edge="1">
          <mxGeometry relative="1" as="geometry" />
        </mxCell>
        <mxCell id="0R5_wL4fo3mR4aE9MmKr-59" style="edgeStyle=orthogonalEdgeStyle;rounded=0;orthogonalLoop=1;jettySize=auto;html=1;exitX=0;exitY=0.5;exitDx=0;exitDy=0;exitPerimeter=0;entryX=1;entryY=0.25;entryDx=0;entryDy=0;endArrow=none;endFill=0;" parent="1" source="0R5_wL4fo3mR4aE9MmKr-57" target="0R5_wL4fo3mR4aE9MmKr-2" edge="1">
          <mxGeometry relative="1" as="geometry" />
        </mxCell>
        <mxCell id="0R5_wL4fo3mR4aE9MmKr-57" value="Followed" style="strokeWidth=2;html=1;shape=mxgraph.flowchart.decision;whiteSpace=wrap;" parent="1" vertex="1">
          <mxGeometry x="220" y="50" width="80" height="76" as="geometry" />
        </mxCell>
        <mxCell id="0R5_wL4fo3mR4aE9MmKr-60" value="1..N" style="text;html=1;align=center;verticalAlign=middle;resizable=0;points=[];autosize=1;strokeColor=none;fillColor=none;" parent="1" vertex="1">
          <mxGeometry x="175" y="58" width="50" height="30" as="geometry" />
        </mxCell>
        <mxCell id="0R5_wL4fo3mR4aE9MmKr-61" value="1..N" style="text;html=1;align=center;verticalAlign=middle;resizable=0;points=[];autosize=1;strokeColor=none;fillColor=none;" parent="1" vertex="1">
          <mxGeometry x="305" y="48" width="50" height="30" as="geometry" />
        </mxCell>
        <mxCell id="0R5_wL4fo3mR4aE9MmKr-62" value="M:N" style="text;html=1;align=center;verticalAlign=middle;resizable=0;points=[];autosize=1;strokeColor=none;fillColor=none;" parent="1" vertex="1">
          <mxGeometry x="235" y="10" width="50" height="30" as="geometry" />
        </mxCell>
        <mxCell id="0R5_wL4fo3mR4aE9MmKr-65" style="edgeStyle=orthogonalEdgeStyle;rounded=0;orthogonalLoop=1;jettySize=auto;html=1;exitX=0.5;exitY=0;exitDx=0;exitDy=0;exitPerimeter=0;entryX=0.88;entryY=1;entryDx=0;entryDy=0;entryPerimeter=0;endArrow=none;endFill=0;" parent="1" source="0R5_wL4fo3mR4aE9MmKr-63" target="0R5_wL4fo3mR4aE9MmKr-2" edge="1">
          <mxGeometry relative="1" as="geometry" />
        </mxCell>
        <mxCell id="0R5_wL4fo3mR4aE9MmKr-66" style="edgeStyle=orthogonalEdgeStyle;rounded=0;orthogonalLoop=1;jettySize=auto;html=1;exitX=0.5;exitY=1;exitDx=0;exitDy=0;exitPerimeter=0;entryX=0.069;entryY=-0.033;entryDx=0;entryDy=0;entryPerimeter=0;endArrow=none;endFill=0;" parent="1" source="0R5_wL4fo3mR4aE9MmKr-63" target="0R5_wL4fo3mR4aE9MmKr-9" edge="1">
          <mxGeometry relative="1" as="geometry" />
        </mxCell>
        <mxCell id="0R5_wL4fo3mR4aE9MmKr-63" value="Like" style="strokeWidth=2;html=1;shape=mxgraph.flowchart.decision;whiteSpace=wrap;" parent="1" vertex="1">
          <mxGeometry x="377" y="230" width="97" height="88" as="geometry" />
        </mxCell>
        <mxCell id="0R5_wL4fo3mR4aE9MmKr-67" value="1..N" style="text;html=1;align=center;verticalAlign=middle;resizable=0;points=[];autosize=1;strokeColor=none;fillColor=none;" parent="1" vertex="1">
          <mxGeometry x="135" y="158" width="50" height="30" as="geometry" />
        </mxCell>
        <mxCell id="0R5_wL4fo3mR4aE9MmKr-68" value="1..N" style="text;html=1;align=center;verticalAlign=middle;resizable=0;points=[];autosize=1;strokeColor=none;fillColor=none;" parent="1" vertex="1">
          <mxGeometry x="615" y="298" width="50" height="30" as="geometry" />
        </mxCell>
        <mxCell id="0R5_wL4fo3mR4aE9MmKr-69" value="M:N" style="text;html=1;align=center;verticalAlign=middle;resizable=0;points=[];autosize=1;strokeColor=none;fillColor=none;" parent="1" vertex="1">
          <mxGeometry x="474" y="259" width="50" height="30" as="geometry" />
        </mxCell>
        <mxCell id="0R5_wL4fo3mR4aE9MmKr-73" style="edgeStyle=orthogonalEdgeStyle;rounded=0;orthogonalLoop=1;jettySize=auto;html=1;exitX=0;exitY=0.5;exitDx=0;exitDy=0;entryX=0.887;entryY=0.364;entryDx=0;entryDy=0;entryPerimeter=0;endArrow=none;endFill=0;" parent="1" source="0R5_wL4fo3mR4aE9MmKr-70" target="0R5_wL4fo3mR4aE9MmKr-63" edge="1">
          <mxGeometry relative="1" as="geometry" />
        </mxCell>
        <mxCell id="0R5_wL4fo3mR4aE9MmKr-70" value="Date" style="ellipse;whiteSpace=wrap;html=1;align=center;" parent="1" vertex="1">
          <mxGeometry x="510" y="188" width="81" height="30" as="geometry" />
        </mxCell>
        <mxCell id="0R5_wL4fo3mR4aE9MmKr-74" style="edgeStyle=orthogonalEdgeStyle;rounded=0;orthogonalLoop=1;jettySize=auto;html=1;exitX=0;exitY=0.5;exitDx=0;exitDy=0;entryX=-0.08;entryY=0.333;entryDx=0;entryDy=0;entryPerimeter=0;endArrow=none;endFill=0;" parent="1" source="0R5_wL4fo3mR4aE9MmKr-71" target="0R5_wL4fo3mR4aE9MmKr-69" edge="1">
          <mxGeometry relative="1" as="geometry" />
        </mxCell>
        <mxCell id="0R5_wL4fo3mR4aE9MmKr-71" value="Time" style="ellipse;whiteSpace=wrap;html=1;align=center;" parent="1" vertex="1">
          <mxGeometry x="520" y="218" width="71" height="32" as="geometry" />
        </mxCell>
        <mxCell id="0R5_wL4fo3mR4aE9MmKr-75" value="&lt;u&gt;&lt;b&gt;ENTITY / RELATIONAL DIAGRAM&lt;/b&gt;&lt;/u&gt;" style="text;html=1;align=center;verticalAlign=middle;resizable=0;points=[];autosize=1;strokeColor=none;fillColor=none;" parent="1" vertex="1">
          <mxGeometry x="335" width="210" height="30" as="geometry" />
        </mxCell>
        <mxCell id="0R5_wL4fo3mR4aE9MmKr-76" value="&lt;b&gt;&lt;u&gt;RELATIONAL MODEL MAPPING&lt;/u&gt;&lt;/b&gt;" style="text;html=1;align=center;verticalAlign=middle;resizable=0;points=[];autosize=1;strokeColor=none;fillColor=none;" parent="1" vertex="1">
          <mxGeometry x="155" y="518" width="210" height="30" as="geometry" />
        </mxCell>
        <mxCell id="0R5_wL4fo3mR4aE9MmKr-77" value="Users Table (Name, Email, Password, Date of&amp;nbsp;Birth, Profile Image)&lt;br&gt;Artist Table (Name, Gender, Image)&lt;br&gt;Followers Table (Users Name, Artist Name)&lt;br&gt;Albums Table (Name,Date, Image, #Artist Name)&lt;br&gt;Tracks Table (Name, Duration, File path, #Album Name)&lt;br&gt;Playlist Table (Name, Image, #Users Name)&lt;br&gt;Playlist_track Tables (#Playlists Name, #Tracks Name)&lt;br&gt;Likes Table (Date, Time, #Users Name, #Track Name)" style="text;html=1;align=center;verticalAlign=middle;resizable=0;points=[];autosize=1;strokeColor=none;fillColor=none;" parent="1" vertex="1">
          <mxGeometry x="80" y="550" width="380" height="130" as="geometry" />
        </mxCell>
        <mxCell id="0R5_wL4fo3mR4aE9MmKr-78" value="&lt;u&gt;&lt;b&gt;CROW&#39;S FOOT NOTATION&lt;/b&gt;&lt;/u&gt;" style="text;html=1;align=center;verticalAlign=middle;resizable=0;points=[];autosize=1;strokeColor=none;fillColor=none;" parent="1" vertex="1">
          <mxGeometry x="165" y="700" width="170" height="30" as="geometry" />
        </mxCell>
        <mxCell id="0rSEhBZTYAnV_CyyV2iI-1" style="edgeStyle=orthogonalEdgeStyle;rounded=0;orthogonalLoop=1;jettySize=auto;html=1;exitX=1;exitY=1;exitDx=0;exitDy=0;entryX=0;entryY=0;entryDx=0;entryDy=0;endArrow=ERoneToMany;endFill=0;startArrow=ERoneToMany;startFill=0;" edge="1" parent="1" source="0R5_wL4fo3mR4aE9MmKr-181" target="0R5_wL4fo3mR4aE9MmKr-187">
          <mxGeometry relative="1" as="geometry" />
        </mxCell>
        <mxCell id="0R5_wL4fo3mR4aE9MmKr-181" value="USERS TABLE" style="swimlane;childLayout=stackLayout;horizontal=1;startSize=50;horizontalStack=0;rounded=1;fontSize=14;fontStyle=0;strokeWidth=2;resizeParent=0;resizeLast=1;shadow=0;dashed=0;align=center;arcSize=4;whiteSpace=wrap;html=1;" parent="1" vertex="1">
          <mxGeometry x="30" y="770" width="150" height="140" as="geometry" />
        </mxCell>
        <mxCell id="0R5_wL4fo3mR4aE9MmKr-182" value="&lt;u&gt;Name&lt;br&gt;&lt;/u&gt;Email&lt;br&gt;Password&amp;nbsp;&lt;br&gt;Date of&amp;nbsp;Birth&lt;br&gt;Profile Image" style="align=left;strokeColor=none;fillColor=none;spacingLeft=4;fontSize=12;verticalAlign=top;resizable=0;rotatable=0;part=1;html=1;" parent="0R5_wL4fo3mR4aE9MmKr-181" vertex="1">
          <mxGeometry y="50" width="150" height="90" as="geometry" />
        </mxCell>
        <mxCell id="0R5_wL4fo3mR4aE9MmKr-183" value="ARTIST TABLE" style="swimlane;childLayout=stackLayout;horizontal=1;startSize=50;horizontalStack=0;rounded=1;fontSize=14;fontStyle=0;strokeWidth=2;resizeParent=0;resizeLast=1;shadow=0;dashed=0;align=center;arcSize=4;whiteSpace=wrap;html=1;" parent="1" vertex="1">
          <mxGeometry x="320" y="780" width="140" height="120" as="geometry" />
        </mxCell>
        <mxCell id="0R5_wL4fo3mR4aE9MmKr-184" value="&lt;u&gt;Name&lt;/u&gt;&lt;br&gt;Genre&lt;br&gt;Image" style="align=left;strokeColor=none;fillColor=none;spacingLeft=4;fontSize=12;verticalAlign=top;resizable=0;rotatable=0;part=1;html=1;" parent="0R5_wL4fo3mR4aE9MmKr-183" vertex="1">
          <mxGeometry y="50" width="140" height="70" as="geometry" />
        </mxCell>
        <mxCell id="0R5_wL4fo3mR4aE9MmKr-185" value="ALBUMS TABLE" style="swimlane;childLayout=stackLayout;horizontal=1;startSize=50;horizontalStack=0;rounded=1;fontSize=14;fontStyle=0;strokeWidth=2;resizeParent=0;resizeLast=1;shadow=0;dashed=0;align=center;arcSize=4;whiteSpace=wrap;html=1;" parent="1" vertex="1">
          <mxGeometry x="730" y="780" width="160" height="120" as="geometry" />
        </mxCell>
        <mxCell id="0R5_wL4fo3mR4aE9MmKr-193" value="&lt;u&gt;Name&lt;/u&gt;&lt;br&gt;Release Date&lt;br&gt;Image&lt;br&gt;Arstist Name" style="align=left;strokeColor=none;fillColor=none;spacingLeft=4;fontSize=12;verticalAlign=top;resizable=0;rotatable=0;part=1;html=1;" parent="0R5_wL4fo3mR4aE9MmKr-185" vertex="1">
          <mxGeometry y="50" width="160" height="70" as="geometry" />
        </mxCell>
        <mxCell id="0R5_wL4fo3mR4aE9MmKr-187" value="TRACK TABLE" style="swimlane;childLayout=stackLayout;horizontal=1;startSize=50;horizontalStack=0;rounded=1;fontSize=14;fontStyle=0;strokeWidth=2;resizeParent=0;resizeLast=1;shadow=0;dashed=0;align=center;arcSize=4;whiteSpace=wrap;html=1;" parent="1" vertex="1">
          <mxGeometry x="725" y="1020" width="160" height="120" as="geometry" />
        </mxCell>
        <mxCell id="0R5_wL4fo3mR4aE9MmKr-188" value="&lt;u&gt;Name&lt;/u&gt;&lt;br&gt;Duration&lt;br&gt;File path&lt;br&gt;Album Name" style="align=left;strokeColor=none;fillColor=none;spacingLeft=4;fontSize=12;verticalAlign=top;resizable=0;rotatable=0;part=1;html=1;" parent="0R5_wL4fo3mR4aE9MmKr-187" vertex="1">
          <mxGeometry y="50" width="160" height="70" as="geometry" />
        </mxCell>
        <mxCell id="0R5_wL4fo3mR4aE9MmKr-189" value="PLAYLISTS TABLE" style="swimlane;childLayout=stackLayout;horizontal=1;startSize=50;horizontalStack=0;rounded=1;fontSize=14;fontStyle=0;strokeWidth=2;resizeParent=0;resizeLast=1;shadow=0;dashed=0;align=center;arcSize=4;whiteSpace=wrap;html=1;" parent="1" vertex="1">
          <mxGeometry x="50" y="1000" width="160" height="120" as="geometry" />
        </mxCell>
        <mxCell id="0R5_wL4fo3mR4aE9MmKr-190" value="&lt;u&gt;Name&lt;/u&gt;&lt;br&gt;Image&lt;br&gt;Users Name" style="align=left;strokeColor=none;fillColor=none;spacingLeft=4;fontSize=12;verticalAlign=top;resizable=0;rotatable=0;part=1;html=1;" parent="0R5_wL4fo3mR4aE9MmKr-189" vertex="1">
          <mxGeometry y="50" width="160" height="70" as="geometry" />
        </mxCell>
        <mxCell id="0R5_wL4fo3mR4aE9MmKr-191" style="edgeStyle=orthogonalEdgeStyle;rounded=0;orthogonalLoop=1;jettySize=auto;html=1;exitX=1;exitY=0.25;exitDx=0;exitDy=0;entryX=-0.029;entryY=0.357;entryDx=0;entryDy=0;entryPerimeter=0;endArrow=ERoneToMany;endFill=0;startArrow=ERoneToMany;startFill=0;" parent="1" source="0R5_wL4fo3mR4aE9MmKr-182" target="0R5_wL4fo3mR4aE9MmKr-184" edge="1">
          <mxGeometry relative="1" as="geometry" />
        </mxCell>
        <mxCell id="0R5_wL4fo3mR4aE9MmKr-195" style="edgeStyle=orthogonalEdgeStyle;rounded=0;orthogonalLoop=1;jettySize=auto;html=1;exitX=1;exitY=0.25;exitDx=0;exitDy=0;endArrow=ERoneToMany;endFill=0;startArrow=ERone;startFill=0;" parent="1" source="0R5_wL4fo3mR4aE9MmKr-184" edge="1">
          <mxGeometry relative="1" as="geometry">
            <mxPoint x="730" y="847" as="targetPoint" />
          </mxGeometry>
        </mxCell>
        <mxCell id="0R5_wL4fo3mR4aE9MmKr-196" style="edgeStyle=orthogonalEdgeStyle;rounded=0;orthogonalLoop=1;jettySize=auto;html=1;exitX=0.5;exitY=1;exitDx=0;exitDy=0;endArrow=ERoneToMany;endFill=0;startArrow=ERone;startFill=0;" parent="1" source="0R5_wL4fo3mR4aE9MmKr-193" target="0R5_wL4fo3mR4aE9MmKr-187" edge="1">
          <mxGeometry relative="1" as="geometry" />
        </mxCell>
        <mxCell id="0R5_wL4fo3mR4aE9MmKr-200" style="edgeStyle=orthogonalEdgeStyle;rounded=0;orthogonalLoop=1;jettySize=auto;html=1;exitX=0;exitY=0.25;exitDx=0;exitDy=0;entryX=1;entryY=0.25;entryDx=0;entryDy=0;startArrow=ERoneToMany;startFill=0;endArrow=ERoneToMany;endFill=0;" parent="1" source="0R5_wL4fo3mR4aE9MmKr-188" target="0R5_wL4fo3mR4aE9MmKr-190" edge="1">
          <mxGeometry relative="1" as="geometry" />
        </mxCell>
        <mxCell id="0R5_wL4fo3mR4aE9MmKr-201" style="edgeStyle=orthogonalEdgeStyle;rounded=0;orthogonalLoop=1;jettySize=auto;html=1;exitX=0.5;exitY=1;exitDx=0;exitDy=0;entryX=0.344;entryY=0;entryDx=0;entryDy=0;entryPerimeter=0;startArrow=ERone;startFill=0;endArrow=ERoneToMany;endFill=0;" parent="1" source="0R5_wL4fo3mR4aE9MmKr-182" target="0R5_wL4fo3mR4aE9MmKr-189" edge="1">
          <mxGeometry relative="1" as="geometry" />
        </mxCell>
        <mxCell id="0rSEhBZTYAnV_CyyV2iI-2" value="Let’s Design the Database of Spotify.&#xa;&#xa;&#xa;As a first step let’s start with all the tables that are required to design the database of Spotify.&#xa;&#xa;&#xa;Here’s a brief explanation of the use of each table in the database design for a system like Spotify:&#xa;&#xa;&#xa;Users table: This table will store information about the registered users of the system, such as their name, email, password, date of birth, and profile image.&#xa;&#xa;&#xa;Artists table: This table will store information about the artists, such as their names, genre, and image.&#xa;&#xa;&#xa;Albums table: This table will store information about the albums, such as the album name, release date, and image. It will also have a foreign key linking to the Artists table.&#xa;&#xa;&#xa;Tracks table: This table will store information about the tracks, such as the track name, duration, and file path. It will also have a foreign key linking to the album table.&#xa;&#xa;&#xa;Playlists table: This table will store information about the playlists created by the users, such as the playlist name and image. It will also have a foreign key linking to the Users table.&#xa;&#xa;&#xa;Playlist_Tracks table: This table will store the association between playlists and tracks. It will have two foreign keys, linking to the Playlists and Tracks tables.&#xa;&#xa;&#xa;Followers table: This table will store the association between users and artists. It will have two foreign keys, linking to the Users and Artists tables.&#xa;&#xa;&#xa;Likes table: This table will store information about the tracks liked by the users, such as the date and time of the like. It will have two foreign keys, linking to the Users and Tracks tables.&#xa;&#xa;&#xa;&#xa;&#xa;By using these tables, the system can easily retrieve and manipulate the data related to users, artists, albums, tracks, playlists, followers, and likes.&#xa;&#xa;&#xa;In the next step, Let’s create the relationships between these tables.&#xa;&#xa;&#xa;Here is an example of how the relationships between the tables in the Spotify database design might be structured:&#xa;&#xa;&#xa;* One-to-Many relationship between Users and Playlists: One user can have multiple playlists.&#xa;* One-to-Many relationship between Artists and Albums: One artist can have multiple albums.&#xa;* One-to-Many relationship between Albums and Tracks: One album can have multiple tracks.&#xa;* Many-to-Many relationship between Playlists and Tracks: One playlist can have multiple tracks, and one track can be part of multiple playlists. The relationship is managed by the Playlist_Tracks table.&#xa;* Many-to-Many relationship between Users and Artists: One user can follow multiple artists, and one artist can be followed by multiple users. The relationship is managed by the Followers table.&#xa;* Many-to-Many relationship between Users and Tracks: One user can like multiple tracks, and one track can be liked by multiple users. The relationship is managed by the Likes table.&#xa;&#xa;&#xa;By using these relationships, the system can easily retrieve and manipulate the data related to users, artists, albums, tracks, playlists, followers, and likes." style="text;whiteSpace=wrap;" vertex="1" parent="1">
          <mxGeometry x="-670" y="20" width="560" height="1000" as="geometry" />
        </mxCell>
      </root>
    </mxGraphModel>
  </diagram>
</mxfile>
